<svg id="Layer_1" data-name="Layer 1" xmlns="http://www.w3.org/2000/svg" viewBox="0 0 54.3 54.3"><defs><style>.cls-1{fill:#7f5d00;}.cls-2{fill:#f7931e;}</style></defs><path class="cls-1" d="M4.21,51.49c3.92-15.81,18.08-25.59,32.07-32,.88-.41.11-1.7-.76-1.3C21.18,24.76,6.77,34.9,2.76,51.09a.75.75,0,0,0,1.45.4Z"/><path class="cls-2" d="M38.07,18.05A69,69,0,0,1,35,9.59a14,14,0,0,1-.72-4.09,5.35,5.35,0,0,1,1.46-3.78,1,1,0,0,1,.64-.34,1.09,1.09,0,0,1,.81.55C38.65,4,39,6.59,39.08,9.1a39.11,39.11,0,0,0,.41,7.5c.26-3.06.54-6.2,1.83-9s3.83-5.21,6.89-5.48A5.9,5.9,0,0,1,47.92,7a17.67,17.67,0,0,1-3,4l-5.25,5.84a36.81,36.81,0,0,1,8.8-4,5.37,5.37,0,0,1,3.1-.07,2.29,2.29,0,0,1,1.61,2.4c-.25,1.27-1.74,1.81-3,2.12-3.43.84-7,1.65-10.45.73a18.63,18.63,0,0,1,3.13,14.49c-.17.84-.5,1.78-1.3,2.07a1.83,1.83,0,0,1-2-.76,5,5,0,0,1-.76-2.11A62.66,62.66,0,0,1,37.73,18.6c-1,4.67-3.41,9.47-7.78,11.4a.86.86,0,0,1-.74.08.84.84,0,0,1-.34-.72c-.14-2.27,1.51-4.24,3.19-5.77s3.6-3.05,4.26-5.22a17,17,0,0,1-10.21-.95,2.28,2.28,0,0,1-1-.71,2.43,2.43,0,0,1-.32-1.33,3.94,3.94,0,0,1,.76-3.11c1.18-1.12,3.1-.38,4.52.41l7.7,4.24"/><path d="M38.39,17.86a71.46,71.46,0,0,1-2.91-7.92,15.13,15.13,0,0,1-.83-4.2,5.83,5.83,0,0,1,.23-1.82C35,3.51,35.49,2.08,36,2s1,.47,1.29.79a5.77,5.77,0,0,1,.36.7,9.87,9.87,0,0,1,.6,1.76A17.37,17.37,0,0,1,38.7,8.9a48.39,48.39,0,0,0,.42,7.8c.09.44.71.29.74-.1.46-5.37,1.64-13.3,8.35-14.08l-.36-.28c1.17,3-.7,5.73-2.61,7.9s-3.88,4.32-5.81,6.47a.38.38,0,0,0,.45.59,49.93,49.93,0,0,1,6.2-3.12,18,18,0,0,1,3-.91c1.32-.27,3.81-.22,3.82,1.73s-4,2.43-5.46,2.72a17.09,17.09,0,0,1-7.53.11c-.29-.08-.62.27-.42.55a18.69,18.69,0,0,1,3.07,7,15.77,15.77,0,0,1-.14,7.81c-.34,1-1.4,1.59-2.27.75a3.7,3.7,0,0,1-.84-2c-.31-1.5-.54-3-.72-4.53a65.44,65.44,0,0,1-.44-8.74.37.37,0,0,0-.73-.1A21.06,21.06,0,0,1,35,24.82c-1,1.72-2.84,4.12-4.88,4.7-.64.19-.87.05-.85-.56a4.7,4.7,0,0,1,.17-1.05,6.1,6.1,0,0,1,.92-1.86,16.48,16.48,0,0,1,2.57-2.71,12.09,12.09,0,0,0,3.78-4.87.38.38,0,0,0-.46-.47,16.76,16.76,0,0,1-7.12,0A10.31,10.31,0,0,1,26,17c-1-.63-1-2.27-.79-3.34.73-3,4.33-.79,5.92.09l6.41,3.54c.42.23.8-.42.38-.65a92.82,92.82,0,0,0-8.76-4.77c-2-.85-4.35-.59-4.74,1.95a4.83,4.83,0,0,0,.32,3.12c.59.85,2,1.19,2.89,1.47a17.65,17.65,0,0,0,8.78.36L36,18.27c-1,3-4.05,4.51-5.91,6.91-.65.83-2.94,5-.66,5.3,1,.12,2.23-.92,3-1.48a12.8,12.8,0,0,0,2.58-2.72,20.7,20.7,0,0,0,3.17-7.58l-.74-.1A65.23,65.23,0,0,0,38.17,30c.25,1.58,1.06,6.54,3.89,4.81,1-.59,1.18-1.94,1.34-3a18.83,18.83,0,0,0,.11-5,19.2,19.2,0,0,0-3.43-8.94l-.42.55A19.8,19.8,0,0,0,49,18c1.72-.4,5-1,4.6-3.48-.43-2.66-3.69-2.42-5.6-1.9a39.25,39.25,0,0,0-8.46,3.89l.46.59c2.3-2.56,4.77-5,6.88-7.75C48.47,7.3,49.59,4.66,48.57,2a.38.38,0,0,0-.36-.27c-7.2.84-8.59,9-9.1,14.83l.74-.1c-.68-3.4-.09-6.88-.64-10.29C39,5,37.92.1,35.83,1.17A4.4,4.4,0,0,0,34.11,3.9a9.32,9.32,0,0,0,.15,4.45,60.77,60.77,0,0,0,3.48,9.89c.2.44.84.06.65-.38Z"/></svg>