<svg id="Layer_1" data-name="Layer 1" xmlns="http://www.w3.org/2000/svg" viewBox="0 0 54.3 54.3"><defs><style>.cls-1{fill:#7f5d00;}.cls-2{fill:#ed1e79;}</style></defs><path class="cls-1" d="M4.21,51.49c3.92-15.81,18.08-25.59,32.07-32,.88-.41.11-1.7-.76-1.3C21.18,24.76,6.77,34.9,2.76,51.09a.75.75,0,0,0,1.45.4Z"/><path class="cls-2" d="M30.81,10.81a1.66,1.66,0,0,0-1.59-.37A6.74,6.74,0,0,0,24.9,13,5.46,5.46,0,0,0,24,17.82,4.61,4.61,0,0,0,27.72,21a8.38,8.38,0,0,0,3.77-.73c-.29,2.06-.36,4.34.85,6a5.85,5.85,0,0,0,3.3,2.16A7.18,7.18,0,0,0,42,27.12a6,6,0,0,0,2-6,5.16,5.16,0,0,0,4.88-1.21A6.65,6.65,0,0,0,50,11.61a6.47,6.47,0,0,0-8-2.27A5.15,5.15,0,0,0,37.89,5a7.72,7.72,0,0,0-2.49,0c-1.68.26-3.47.9-4.3,2.38-.65,1.14-.39,2.26-.3,3.57"/><path d="M31.07,10.55c-1.28-1.15-3.51-.21-4.76.61a6.21,6.21,0,0,0-2.88,4.72,5.19,5.19,0,0,0,2.08,4.57c1.89,1.38,4,.87,6.08.14l-.47-.36c-.3,2.2-.37,4.69,1.12,6.51A6.82,6.82,0,0,0,37.49,29c4.28,0,7.85-3.71,6.83-8l-.46.46c4.52,1.28,8-3.43,7.39-7.6A6.72,6.72,0,0,0,41.84,9l.56.22c-.54-3.3-3.52-5-6.68-4.61a7.34,7.34,0,0,0-4.23,1.7c-1.36,1.3-1.2,2.93-1.07,4.67,0,.48.79.48.75,0-.11-1.49-.35-3,.85-4.14A6.33,6.33,0,0,1,35.5,5.41c2.92-.45,5.67.93,6.17,4,0,.26.36.31.55.22a6,6,0,0,1,8.25,4.06c.75,3.69-2.3,8.17-6.41,7a.38.38,0,0,0-.46.46c.94,4-2.58,7.33-6.49,7.08a5.76,5.76,0,0,1-4.66-2.52c-1-1.64-.83-3.7-.58-5.52a.38.38,0,0,0-.48-.36c-1.52.54-3.21,1.12-4.77.38a4.36,4.36,0,0,1-2.44-3.59,5.3,5.3,0,0,1,1.59-4.12c.87-.85,3.56-2.55,4.77-1.46.36.32.89-.21.53-.53Z"/><path d="M38,14.13a1,1,0,0,0-1.18-.65,1.68,1.68,0,0,0-1.12.77,2.47,2.47,0,0,0-.16,2.67,1.8,1.8,0,0,0,2.22.5,2.4,2.4,0,0,0,1.29-2.16,1.79,1.79,0,0,0-1.93-1.75.39.39,0,0,0-.38.38.38.38,0,0,0,.38.37A1.05,1.05,0,0,1,38.3,15a1.64,1.64,0,0,1-.57,1.59,1.12,1.12,0,0,1-1.32.12.88.88,0,0,1-.4-.62,2,2,0,0,1,.13-.94,1.42,1.42,0,0,1,.54-.81.76.76,0,0,1,.42-.12c.07,0,.19.06.21.12a.39.39,0,0,0,.46.26.38.38,0,0,0,.26-.46Z"/></svg>