<svg id="Layer_1" data-name="Layer 1" xmlns="http://www.w3.org/2000/svg" viewBox="0 0 40 40"><defs><style>.cls-1{fill:#8a9e5e;}</style></defs><path class="cls-1" d="M2.89,34.77c4.4-5.58,9-10.87,14.8-15.09S30,12.52,36.59,10c.89-.34.5-1.79-.4-1.44-9.5,3.68-18.52,8.27-25.89,15.42a97.23,97.23,0,0,0-8.47,9.77c-.6.75.46,1.82,1.06,1.06Z"/><path class="cls-1" d="M9.35,26.78A39.61,39.61,0,0,0,12.87,21a38.39,38.39,0,0,1,4.06-5.74A22.45,22.45,0,0,1,28.68,7.7c2.18-.49,5.53-1,7.3.77s.26,5-.93,6.79c-2.81,4.09-7.8,6.15-12.33,7.65a52.44,52.44,0,0,1-8.27,2c-2.39.38-4.88.49-6.91,2-.77.56,0,1.86.76,1.29,2.14-1.54,4.95-1.51,7.45-1.95a53,53,0,0,0,8.67-2.3c4.73-1.71,9.67-4.06,12.34-8.54,1.1-1.85,2-4.37,1.23-6.5s-3.26-3-5.43-3c-5-.17-9.93,2.12-13.69,5.33a32.51,32.51,0,0,0-5.7,6.52c-.88,1.29-1.68,2.63-2.44,4a22.46,22.46,0,0,1-2.44,4c-.63.73.43,1.79,1.06,1.06Z"/><path class="cls-1" d="M31.18,11.41a4.07,4.07,0,0,0,1-2c.24-.87.45-1.75.65-2.64.1-.47-.62-.67-.72-.2-.19.83-.39,1.66-.6,2.48a3.81,3.81,0,0,1-.81,1.86c-.35.34.18.87.53.53Z"/><path class="cls-1" d="M25.47,14.24c1.88-1.64,2.69-4.11,3.15-6.48.09-.48-.64-.68-.73-.2-.43,2.25-1.16,4.59-2.95,6.15-.36.31.17.84.53.53Z"/><path class="cls-1" d="M22.28,15.92a7.74,7.74,0,0,0,1.12-3.06c.27-1.27.51-2.54.73-3.82.08-.47-.64-.67-.72-.2-.22,1.24-.45,2.46-.7,3.69a7.61,7.61,0,0,1-1.08,3c-.29.39.36.77.65.38Z"/><path class="cls-1" d="M18.8,12.87h0l-.28-.37c.12,1.77-.43,3.5-.34,5.26,0,.48.77.49.75,0-.09-1.76.46-3.49.34-5.26a.4.4,0,0,0-.27-.36.62.62,0,0,0-.38,0c-.45.17-.26.9.2.72Z"/><path class="cls-1" d="M15.68,15.52c0,1.29-.12,2.58-.26,3.86a.38.38,0,0,0,.75,0c.14-1.28.22-2.57.26-3.86a.38.38,0,0,0-.75,0Z"/><path class="cls-1" d="M29.57,12.43a18.94,18.94,0,0,1,6.66.45c.47.09.67-.64.2-.73a20.24,20.24,0,0,0-7.06-.44c-.48.08-.27.8.2.72Z"/><path class="cls-1" d="M26,14.47a23.89,23.89,0,0,1,4.55.37q1.09.2,2.16.48a4.53,4.53,0,0,1,2,.8c.35.33.88-.2.53-.53a4.46,4.46,0,0,0-1.91-.88,22,22,0,0,0-2.4-.56A25.36,25.36,0,0,0,26,13.72a.38.38,0,0,0,0,.75Z"/><path class="cls-1" d="M21.67,16.91a18,18,0,0,1,9.83,2.27c.42.24.8-.41.38-.64a18.68,18.68,0,0,0-10.21-2.38c-.48,0-.48.78,0,.75Z"/><path class="cls-1" d="M17.62,19.67a11.84,11.84,0,0,1,4.53.66,16.34,16.34,0,0,1,4.14,1.89c.4.27.78-.38.38-.65a17.05,17.05,0,0,0-4.32-2,12.49,12.49,0,0,0-4.73-.68c-.48,0-.48.78,0,.75Z"/><path class="cls-1" d="M14.6,21.85A8,8,0,0,1,21,24.1c.35.34.88-.19.53-.53A8.69,8.69,0,0,0,14.6,21.1c-.48,0-.48.79,0,.75Z"/><path class="cls-1" d="M12.46,24a.94.94,0,0,1,.64.2,6.25,6.25,0,0,1,.69.56,7,7,0,0,1,.68.65,4.92,4.92,0,0,0,.64.73.37.37,0,0,0,.51-.14.38.38,0,0,0-.13-.51,2,2,0,0,1-.28-.36c-.1-.13-.22-.26-.34-.39s-.49-.46-.74-.68a2.27,2.27,0,0,0-1.87-.78.37.37,0,0,0,.2.72Z"/></svg>