<svg id="Layer_1" data-name="Layer 1" xmlns="http://www.w3.org/2000/svg" viewBox="0 0 54.3 54.3"><defs><style>.cls-1{fill:#7f5d00;}.cls-2{fill:#29abe2;}</style></defs><path class="cls-1" d="M54,51.09c-4-16.19-18.42-26.33-32.76-32.92-.88-.4-1.64.89-.76,1.3,14,6.43,28.15,16.21,32.07,32a.75.75,0,0,0,1.45-.4Z"/><path class="cls-2" d="M5.55,15.52a1.64,1.64,0,0,0-1.47.71A6.75,6.75,0,0,0,2.3,20.9a5.47,5.47,0,0,0,2.36,4.33,4.61,4.61,0,0,0,4.85.13A8.41,8.41,0,0,0,12,22.43c1.07,1.79,2.44,3.6,4.44,4.17a5.84,5.84,0,0,0,3.92-.39,7.16,7.16,0,0,0,4.12-5,6,6,0,0,0-2.23-6,5.13,5.13,0,0,0,3.05-4A6.66,6.66,0,0,0,21,4.1a6.45,6.45,0,0,0-7.65,3.24,5.19,5.19,0,0,0-6-.79,8.13,8.13,0,0,0-1.91,1.6C4.38,9.41,3.38,11,3.66,12.71c.21,1.29,1.12,2,2,3"/><path d="M5.55,15.15c-1.81-.1-3,2.37-3.4,3.84a6.17,6.17,0,0,0,1,5.35A5.12,5.12,0,0,0,8,26.3c2.11-.32,3.3-2,4.34-3.68h-.64c1,1.73,2.35,3.54,4.33,4.24a6.67,6.67,0,0,0,6.19-1.34c3.3-2.63,3.81-7.79.32-10.5l-.17.62C26.67,13.84,26.55,8,23.42,5.1A6.72,6.72,0,0,0,13.05,7.15l.59-.08c-2.49-2.25-5.9-1.76-8.14.56A6.93,6.93,0,0,0,3.24,12c-.05,1.72,1.07,2.78,2.16,3.95.33.35.86-.18.53-.53C5,14.41,3.94,13.49,4,12A6.25,6.25,0,0,1,6,8.16c1.94-2,4.89-2.54,7.08-.56a.38.38,0,0,0,.59-.07,6,6,0,0,1,9-2.1c2.88,2.34,3.45,7.84-.51,9.49-.22.09-.41.43-.16.63a5.92,5.92,0,0,1-.06,9.22,5.91,5.91,0,0,1-5.72,1.36c-1.78-.65-2.94-2.33-3.89-3.89a.37.37,0,0,0-.64,0c-.79,1.28-1.66,2.7-3.18,3.18a4.37,4.37,0,0,1-4.35-1.1A5.23,5.23,0,0,1,2.7,20.17c.11-1.3,1.14-4.36,2.85-4.27.49,0,.48-.73,0-.75Z"/><path class="cls-2" d="M9.09,20.91a1.31,1.31,0,0,0-.35,1.23,5.24,5.24,0,0,0,1.81,3.46,4.27,4.27,0,0,0,3.76.87A3.59,3.59,0,0,0,16.9,23.7a6.59,6.59,0,0,0-.42-3c1.6.3,3.37.44,4.74-.44A4.6,4.6,0,0,0,23,17.79a5.6,5.6,0,0,0-.78-5A4.72,4.72,0,0,0,17.61,11a4,4,0,0,0-.76-3.86,5.21,5.21,0,0,0-6.42-1.23,5.06,5.06,0,0,0-2.07,6.16,4,4,0,0,0-3.55,3.07,6.07,6.07,0,0,0,0,1.95,4.51,4.51,0,0,0,1.7,3.45,4.74,4.74,0,0,0,2.78.37"/><path d="M8.89,20.71c-.93.93-.3,2.63.25,3.63a4.87,4.87,0,0,0,3.61,2.52,4.08,4.08,0,0,0,3.68-1.45c1.15-1.43.82-3.13.33-4.76L16.4,21c1.7.31,3.6.48,5.1-.55a5.37,5.37,0,0,0,2.08-4.19,5.24,5.24,0,0,0-6-5.54l.36.36c1.18-3.56-2.53-6.5-5.87-6a5.25,5.25,0,0,0-3.94,7.08l.28-.37c-2.76.32-4.17,2.69-3.89,5.32a5.54,5.54,0,0,0,1.15,3.11c1,1.11,2.26,1,3.62,1a.3.3,0,0,0,0-.59c-1.11,0-2.26.16-3.11-.72a4.73,4.73,0,0,1-1.07-2.8c-.25-2.27.85-4.45,3.3-4.73.17,0,.36-.18.28-.37a4.7,4.7,0,0,1,3.19-6.3c3-.65,6.58,2,5.5,5.23a.29.29,0,0,0,.36.36,4.65,4.65,0,0,1,5.31,5A4.72,4.72,0,0,1,21.07,20c-1.34.85-3,.67-4.52.41a.3.3,0,0,0-.36.36c.38,1.23.77,2.61.07,3.81a3.42,3.42,0,0,1-3,1.69,4.18,4.18,0,0,1-3.11-1.54C9.54,24,8.43,22,9.3,21.12a.29.29,0,0,0-.41-.41Z"/><path class="cls-2" d="M16,21.7c0,.35.33.61.63.78a4.17,4.17,0,0,0,3.05.39,3.37,3.37,0,0,0,2.24-2,2.84,2.84,0,0,0-.62-2.92,5.18,5.18,0,0,0-2.11-1.05A5.14,5.14,0,0,0,21,13.62a3.63,3.63,0,0,0-.8-2.29A4.39,4.39,0,0,0,16.63,9.6a3.68,3.68,0,0,0-3.23,2.18,3.13,3.13,0,0,0-2.82-1.23A4.08,4.08,0,0,0,6.9,14.12a4,4,0,0,0,3,4.1,3.17,3.17,0,0,0,.39,3.66,4.79,4.79,0,0,0,1.23.91,3.51,3.51,0,0,0,3,.45c.74-.31,1-1,1.49-1.62"/><path d="M15.73,21.77c.21,1.1,1.89,1.45,2.82,1.46a3.78,3.78,0,0,0,3-1.37A3.16,3.16,0,0,0,22,18.73a4,4,0,0,0-2.83-2.08l.1.38a5.38,5.38,0,0,0,1.91-3.41,4.11,4.11,0,0,0-1.72-3.29,4.11,4.11,0,0,0-6.3,1.34h.4c-1.68-2.28-5.09-1.43-6.39.79a4.12,4.12,0,0,0,2.67,6l-.14-.34a3.51,3.51,0,0,0,1.48,4.76,4.33,4.33,0,0,0,2.93.74c1-.21,1.53-1,2.07-1.87.17-.25-.23-.48-.39-.23-.47.72-.87,1.48-1.8,1.65a3.86,3.86,0,0,1-2.58-.69,3,3,0,0,1-1.31-4.13A.22.22,0,0,0,10,18a3.67,3.67,0,0,1-2.49-5.13c1-2,4.15-3,5.69-1,.09.12.32.17.4,0a3.63,3.63,0,0,1,5.48-1.31,3.71,3.71,0,0,1,1.68,3A5,5,0,0,1,19,16.71a.23.23,0,0,0,.1.38,3.85,3.85,0,0,1,2.41,1.53,2.69,2.69,0,0,1-.09,2.66,3.19,3.19,0,0,1-2.07,1.42c-.83.18-2.95,0-3.16-1.06-.05-.29-.49-.16-.44.13Z"/></svg>