<svg id="Layer_1" data-name="Layer 1" xmlns="http://www.w3.org/2000/svg" viewBox="0 0 54.3 54.3"><defs><style>.cls-1{fill:#7f5d00;}.cls-2{fill:#29abe2;}</style></defs><path class="cls-1" d="M4.21,51.49c3.92-15.81,18.08-25.59,32.07-32,.88-.41.11-1.7-.76-1.3C21.18,24.76,6.77,34.9,2.76,51.09a.75.75,0,0,0,1.45.4Z"/><path class="cls-2" d="M39,6.82a1.65,1.65,0,0,0-.77-1.44A6.71,6.71,0,0,0,33.5,3.83a5.45,5.45,0,0,0-4.22,2.56,4.63,4.63,0,0,0,.1,4.85,8.4,8.4,0,0,0,3.05,2.33c-1.74,1.16-3.49,2.61-4,4.64a5.89,5.89,0,0,0,.58,3.9A7.15,7.15,0,0,0,34.22,26a6,6,0,0,0,5.84-2.5,5.13,5.13,0,0,0,4.13,2.85,6.65,6.65,0,0,0,7-4.6,6.45,6.45,0,0,0-3.6-7.49,5.15,5.15,0,0,0,.5-6,7.74,7.74,0,0,0-1.69-1.83c-1.31-1.09-3-2-4.63-1.65-1.28.28-2,1.22-2.87,2.15"/><path d="M39.4,6.82c0-1.82-2.49-2.91-4-3.23a6.19,6.19,0,0,0-5.29,1.24,5.16,5.16,0,0,0-1.78,4.78c.37,2.16,2.12,3.31,3.9,4.29v-.65c-1.77,1.19-3.62,2.68-4.13,4.86A6.8,6.8,0,0,0,29.93,24a6.69,6.69,0,0,0,10.45-.36h-.65c2,4.26,8,3.68,10.64.39a6.72,6.72,0,0,0-2.61-10.14l.08.59c2.13-2.6,1.51-6-.92-8.11a7,7,0,0,0-4.46-2.06c-1.72,0-2.74,1.19-3.85,2.33-.33.35.2.88.53.53,1-1,1.83-2.09,3.32-2.11a6.26,6.26,0,0,1,3.93,1.84c2.1,1.84,2.79,4.76.91,7.05a.39.39,0,0,0,.08.59,6,6,0,0,1,2.52,8.87c-2.27,3-7.67,3.73-9.52-.15a.38.38,0,0,0-.65,0c-2.24,3.2-6.78,2.95-9.27.21A5.9,5.9,0,0,1,28.92,18c.57-1.82,2.19-3.07,3.7-4.08a.38.38,0,0,0,0-.65c-1.32-.72-2.78-1.53-3.34-3a4.35,4.35,0,0,1,.88-4.4,5.27,5.27,0,0,1,4.07-1.65c1.28.06,4.43.93,4.42,2.64a.38.38,0,0,0,.75,0Z"/><path class="cls-2" d="M33.81,10.61a1.31,1.31,0,0,0-1.25-.29,5.27,5.27,0,0,0-3.37,2,4.28,4.28,0,0,0-.69,3.8,3.6,3.6,0,0,0,2.9,2.45A6.56,6.56,0,0,0,34.34,18c-.22,1.61-.28,3.39.66,4.71a4.61,4.61,0,0,0,2.59,1.69,5.6,5.6,0,0,0,4.95-1,4.71,4.71,0,0,0,1.56-4.71,4,4,0,0,0,3.81-.95,5.2,5.2,0,0,0,.93-6.47,5,5,0,0,0-6.25-1.77,4.06,4.06,0,0,0-3.24-3.4,6.08,6.08,0,0,0-2,0A4.55,4.55,0,0,0,34,8a4.65,4.65,0,0,0-.23,2.8"/><path d="M34,10.4c-1-.88-2.64-.19-3.61.41a4.87,4.87,0,0,0-2.34,3.61,4,4,0,0,0,1.59,3.72c1.49,1.09,3.16.69,4.77.12L34.05,18c-.22,1.65-.29,3.5.75,4.92a5.31,5.31,0,0,0,4.47,2,5.23,5.23,0,0,0,5.11-6.29l-.36.36c3.56,1,6.33-2.72,5.77-6A5.26,5.26,0,0,0,42.44,9.2l.43.18C42.44,6.73,40,5.44,37.52,5.79A5.55,5.55,0,0,0,34.25,7.2c-1,1-.84,2.24-.74,3.56,0,.37.61.37.58,0-.08-1.12-.27-2.25.57-3.15a4.71,4.71,0,0,1,2.68-1.2c2.33-.38,4.56.62,5,3.13,0,.2.27.24.43.17a4.68,4.68,0,0,1,6.43,3.1c.62,2.91-1.74,6.46-5,5.55a.3.3,0,0,0-.37.36A4.65,4.65,0,0,1,39,24.27a4.52,4.52,0,0,1-3.88-2A6.78,6.78,0,0,1,34.63,18a.29.29,0,0,0-.37-.29c-1.21.43-2.57.9-3.8.27A3.43,3.43,0,0,1,28.62,15a4.09,4.09,0,0,1,1.29-3.1c.7-.67,2.74-2,3.69-1.11.28.25.7-.16.41-.42Z"/><path class="cls-2" d="M33.34,17.5c-.35,0-.59.35-.74.67a4,4,0,0,0-.24,3,3.36,3.36,0,0,0,2.13,2.15,2.85,2.85,0,0,0,2.88-.76,5.18,5.18,0,0,0,1-2.15,5.1,5.1,0,0,0,3.33,1.69,3.6,3.6,0,0,0,2.24-.91,4.39,4.39,0,0,0,1.57-3.64,3.7,3.7,0,0,0-2.34-3.12,3.15,3.15,0,0,0,1.1-2.88,4.07,4.07,0,0,0-3.74-3.5,4,4,0,0,0-4,3.23,3.16,3.16,0,0,0-3.64.56,4.79,4.79,0,0,0-.85,1.27,3.58,3.58,0,0,0-.31,3c.35.72,1,1,1.69,1.4"/><path d="M33.28,17.28c-1.07.25-1.35,1.86-1.34,2.79a3.77,3.77,0,0,0,1.54,3.05,3.16,3.16,0,0,0,3.1.33,4,4,0,0,0,2-2.93l-.39.1a5.43,5.43,0,0,0,3.5,1.76,4.22,4.22,0,0,0,3.28-2,4.1,4.1,0,0,0-1.75-6.16l.1.39c2.19-1.78,1.1-5.18-1.16-6.33a4.11,4.11,0,0,0-5.81,3l.33-.14A3.5,3.5,0,0,0,32,12.82a4.36,4.36,0,0,0-.62,2.92c.24,1.07,1.1,1.51,2,2a.23.23,0,0,0,.23-.4c-.7-.41-1.48-.78-1.72-1.63a3.77,3.77,0,0,1,.54-2.69,3,3,0,0,1,4.05-1.52c.12.05.31,0,.34-.14A3.66,3.66,0,0,1,41.9,8.71c2,1,3,4,1.07,5.6-.15.12,0,.33.1.39a3.64,3.64,0,0,1,1.47,5.48,3.65,3.65,0,0,1-3,1.73,5,5,0,0,1-3-1.62.24.24,0,0,0-.39.11,3.88,3.88,0,0,1-1.35,2.44,2.69,2.69,0,0,1-2.66.12,3.25,3.25,0,0,1-1.59-2.05c-.2-.8-.19-2.93.9-3.19a.23.23,0,0,0-.12-.44Z"/></svg>