<svg id="Layer_1" data-name="Layer 1" xmlns="http://www.w3.org/2000/svg" viewBox="0 0 54.3 54.3"><defs><style>.cls-1{fill:#7f5d00;}.cls-2{fill:#f7931e;}</style></defs><path class="cls-1" d="M54,51.09c-4-16.19-18.42-26.33-32.76-32.92-.88-.4-1.64.89-.76,1.3,14,6.43,28.15,16.21,32.07,32a.75.75,0,0,0,1.45-.4Z"/><path class="cls-2" d="M18.64,18.05a69,69,0,0,0,3.08-8.46,14,14,0,0,0,.72-4.09A5.4,5.4,0,0,0,21,1.72a1,1,0,0,0-.64-.34,1.09,1.09,0,0,0-.81.55c-1.48,2-1.84,4.66-1.9,7.17a39.93,39.93,0,0,1-.41,7.5c-.26-3.06-.54-6.2-1.83-9S11.56,2.41,8.5,2.14A5.9,5.9,0,0,0,8.79,7a17.67,17.67,0,0,0,3,4L17,16.88a36.81,36.81,0,0,0-8.8-4,5.37,5.37,0,0,0-3.1-.07,2.29,2.29,0,0,0-1.61,2.4c.25,1.27,1.74,1.81,3,2.12,3.43.84,7,1.65,10.45.73a18.59,18.59,0,0,0-3.13,14.49c.17.84.5,1.78,1.3,2.07a1.83,1.83,0,0,0,2-.76,5,5,0,0,0,.76-2.11A62.66,62.66,0,0,0,19,18.6c1,4.67,3.41,9.47,7.78,11.4a.86.86,0,0,0,.74.08.84.84,0,0,0,.34-.72c.14-2.27-1.51-4.24-3.2-5.77s-3.59-3.05-4.25-5.22a17,17,0,0,0,10.21-.95,2.28,2.28,0,0,0,1-.71A2.43,2.43,0,0,0,32,15.38a3.94,3.94,0,0,0-.76-3.11c-1.18-1.12-3.1-.38-4.52.41L19,16.92"/><path d="M19,18.24a60.77,60.77,0,0,0,3.48-9.89,9.49,9.49,0,0,0,.19-4.27,4.42,4.42,0,0,0-1.77-2.91C18.79.1,17.69,5,17.5,6.21c-.55,3.41,0,6.89-.64,10.29l.74.1c-.51-5.86-1.9-14-9.1-14.83A.39.39,0,0,0,8.13,2c-1,2.62.11,5.25,1.73,7.35,2.12,2.71,4.59,5.19,6.89,7.75l.46-.59a39.25,39.25,0,0,0-8.46-3.89c-1.92-.53-5.16-.75-5.6,1.9C2.73,17.05,6,17.65,7.75,18a19.8,19.8,0,0,0,9.3.41l-.43-.55a19.29,19.29,0,0,0-3.42,8.94,18.59,18.59,0,0,0,.08,4.83c.16,1.08.35,2.52,1.37,3.16a2.05,2.05,0,0,0,2.49-.43c1.09-1.06,1.18-3,1.4-4.38a64.27,64.27,0,0,0,.81-11.42l-.73.1a20.54,20.54,0,0,0,3.17,7.58A13,13,0,0,0,24.33,29c.72.56,2,1.63,3,1.51,2.28-.29,0-4.46-.66-5.3-1.86-2.4-4.88-3.91-5.91-6.91l-.46.46a17.65,17.65,0,0,0,8.78-.36c.92-.28,2.31-.61,2.89-1.47a4.9,4.9,0,0,0,.32-3.12c-.4-2.54-2.71-2.81-4.74-1.95a95.15,95.15,0,0,0-8.76,4.77c-.42.23,0,.88.38.65l6.41-3.54c1.57-.87,5.19-3.15,5.92-.09.25,1.06.23,2.72-.79,3.34a10.69,10.69,0,0,1-3.09,1,16.76,16.76,0,0,1-7.12,0,.38.38,0,0,0-.46.47,11.68,11.68,0,0,0,3.64,4.75,17.15,17.15,0,0,1,2.59,2.66,6.94,6.94,0,0,1,1,1.84,4,4,0,0,1,.19.9c.07.68.24,1.22-.81.9-2-.59-3.76-2.87-4.79-4.54a21.19,21.19,0,0,1-2.49-6.48.38.38,0,0,0-.74.1,63.5,63.5,0,0,1-.4,8.5c-.18,1.54-.41,3.07-.71,4.58a4.17,4.17,0,0,1-.7,2,1.35,1.35,0,0,1-2.45-.51,15.68,15.68,0,0,1-.18-7.61,18.5,18.5,0,0,1,3.11-7.23c.2-.28-.13-.63-.42-.55a16.94,16.94,0,0,1-7.53-.11C7.9,17.33,3.85,17,3.86,14.9s2.53-2,3.82-1.73a17.85,17.85,0,0,1,2.94.91,50.06,50.06,0,0,1,6.21,3.12.38.38,0,0,0,.45-.59c-1.93-2.15-3.89-4.29-5.81-6.47s-3.78-4.9-2.61-7.9l-.36.28c6.71.78,7.89,8.71,8.35,14.08,0,.39.65.54.73.1A43.88,43.88,0,0,0,18,9.1a18,18,0,0,1,.41-3.66c.17-.73,1-4,2.3-3.45.5.21.91,1.28,1.06,1.74a6,6,0,0,1,.29,1.77,13.51,13.51,0,0,1-.77,4.22,71.34,71.34,0,0,1-3,8.14c-.19.44.45.82.65.38Z"/></svg>