<svg id="Layer_1" data-name="Layer 1" xmlns="http://www.w3.org/2000/svg" viewBox="0 0 40 40"><defs><style>.cls-1{fill:#8a9e5e;}</style></defs><path class="cls-1" d="M38.07,33.71A83.24,83.24,0,0,0,25.32,20.2a61,61,0,0,0-10.9-7C10.94,11.45,7.34,9.93,3.71,8.52c-.9-.35-1.29,1.1-.4,1.44,6.6,2.56,13.16,5.51,18.9,9.72S32.61,29.19,37,34.77c.6.76,1.65-.31,1.06-1.06Z"/><path class="cls-1" d="M31.61,25.72c-1.74-2-2.74-4.73-4.18-7a35.72,35.72,0,0,0-5-6.29A22,22,0,0,0,9.19,5.88C7,5.68,4.37,5.8,2.74,7.54s-1.22,4.26-.39,6.27c2,4.76,6.62,7.49,11.19,9.36A52.54,52.54,0,0,0,22.78,26c2.87.58,6.36.44,8.82,2.21.78.57,1.53-.73.75-1.29-1.76-1.28-3.89-1.53-6-1.82a52.09,52.09,0,0,1-7.2-1.53c-4.62-1.32-9.71-3.15-13.08-6.74-1.56-1.65-3.11-4.08-3-6.45.18-3,3.82-3.16,6.08-2.95,4.79.44,9.16,3.05,12.48,6.43a35.67,35.67,0,0,1,4.92,6.41c1.33,2.17,2.3,4.61,4,6.56.63.73,1.68-.33,1.06-1.06Z"/><path class="cls-1" d="M9.25,10.88A3.72,3.72,0,0,1,8.44,9C8.22,8.2,8,7.37,7.84,6.54c-.1-.47-.83-.27-.72.2.19.89.41,1.77.64,2.64a4.17,4.17,0,0,0,1,2c.35.34.88-.19.53-.53Z"/><path class="cls-1" d="M15,13.71c-1.78-1.56-2.51-3.9-2.95-6.15-.09-.48-.81-.28-.72.2.46,2.37,1.27,4.84,3.14,6.48.37.31.9-.22.53-.53Z"/><path class="cls-1" d="M18.27,15.54a7.46,7.46,0,0,1-1.08-3c-.26-1.23-.49-2.45-.7-3.69-.08-.47-.8-.27-.72.2.22,1.28.46,2.55.72,3.82a7.92,7.92,0,0,0,1.13,3.06c.28.39.93,0,.65-.38Z"/><path class="cls-1" d="M21.3,12.15a.62.62,0,0,0-.38,0,.38.38,0,0,0-.27.36c-.13,1.77.42,3.5.34,5.26,0,.49.73.49.75,0,.08-1.76-.47-3.49-.34-5.26l-.28.37h0c.45.18.65-.55.2-.72Z"/><path class="cls-1" d="M23.47,15.52c0,1.29.12,2.58.25,3.86a.39.39,0,0,0,.38.37c.18,0,.4-.17.37-.37-.13-1.28-.22-2.57-.25-3.86,0-.48-.77-.48-.75,0Z"/><path class="cls-1" d="M10.53,11.71a20.23,20.23,0,0,0-7.06.44c-.47.09-.27.82.2.73a18.94,18.94,0,0,1,6.66-.45c.47.08.67-.64.2-.72Z"/><path class="cls-1" d="M13.91,13.72A25.36,25.36,0,0,0,9,14.15a22,22,0,0,0-2.4.56,4.46,4.46,0,0,0-1.91.88c-.35.33.18.86.53.53a4.42,4.42,0,0,1,1.91-.78c.73-.2,1.48-.37,2.23-.5a24.06,24.06,0,0,1,4.56-.37.38.38,0,0,0,0-.75Z"/><path class="cls-1" d="M18.23,16.16A18.66,18.66,0,0,0,8,18.54c-.42.23,0,.88.38.64a18,18,0,0,1,9.83-2.27c.48,0,.48-.72,0-.75Z"/><path class="cls-1" d="M22.28,18.92a12.51,12.51,0,0,0-4.74.68,17.15,17.15,0,0,0-4.31,2c-.4.27,0,.92.37.65a16.66,16.66,0,0,1,4.14-1.89,11.9,11.9,0,0,1,4.54-.66c.48,0,.48-.72,0-.75Z"/><path class="cls-1" d="M25.3,21.1a8.71,8.71,0,0,0-6.92,2.47.38.38,0,0,0,.53.53,8,8,0,0,1,6.39-2.25c.48,0,.47-.71,0-.75Z"/><path class="cls-1" d="M27.63,23.28a2.26,2.26,0,0,0-1.86.78c-.26.22-.51.44-.75.68l-.34.39a1.61,1.61,0,0,1-.27.36.38.38,0,0,0-.14.51.39.39,0,0,0,.52.14,4.64,4.64,0,0,0,.62-.71,8.7,8.7,0,0,1,.69-.67,6.88,6.88,0,0,1,.67-.54,1,1,0,0,1,.66-.22.38.38,0,0,0,.46-.26.37.37,0,0,0-.26-.46Z"/></svg>