<svg id="Layer_1" data-name="Layer 1" xmlns="http://www.w3.org/2000/svg" viewBox="0 0 54.3 54.3"><defs><style>.cls-1{fill:#7f5d00;}.cls-2{fill:#b583cc;}</style></defs><path class="cls-1" d="M54,51.09c-4-16.19-18.42-26.33-32.76-32.92-.88-.4-1.64.89-.76,1.3,14,6.43,28.15,16.21,32.07,32a.75.75,0,0,0,1.45-.4Z"/><path class="cls-2" d="M20.87,18.59c.81-4.29,1.61-8.77.44-13a1.44,1.44,0,0,0-.26-.56,1.36,1.36,0,0,0-.65-.34,14.63,14.63,0,0,0-4-.62,5,5,0,0,0-3.8,1.2,4,4,0,0,0-.63,4,11.25,11.25,0,0,0,2.33,3.56c1.44,1.65,2.94,3.27,4.48,4.84A4.27,4.27,0,0,0,20.72,19q-2.38-1.71-4.82-3.37a16.87,16.87,0,0,0-2.44-1.48,8.34,8.34,0,0,0-3.58-.72,1.71,1.71,0,0,0-.81.17,1.76,1.76,0,0,0-.7,1.29,10.61,10.61,0,0,0,.89,6.54,2.93,2.93,0,0,0,1,1.23A3,3,0,0,0,11.9,23C15,23,18.2,21.78,20,19.27l-3.82,2.92c-1.39,1.06-2.89,2.3-3.13,4a4.48,4.48,0,0,0,2.76,4.35,10.81,10.81,0,0,0,5.42.61c.79-.07,1.71-.25,2.05-1a2.41,2.41,0,0,0,.14-1,28.36,28.36,0,0,0-1.93-9.71A73.63,73.63,0,0,0,27,25.33a4.52,4.52,0,0,0,1.6,1.14,1.68,1.68,0,0,0,1.82-.35A2.55,2.55,0,0,0,30.85,25a14.13,14.13,0,0,0,.47-4,4.74,4.74,0,0,0-1.72-3.5c-1.51-1.11-3.6-.84-5.41-.36a12.54,12.54,0,0,0-3.4,1.36,12.32,12.32,0,0,0,4-2c.63-.48,1.22-1,1.87-1.48.81-.55,1.71-1,2.46-1.58A3.09,3.09,0,0,0,30.39,11c-.09-1.19-1.15-2.06-2.17-2.68A6.59,6.59,0,0,0,25.7,7.21a1.77,1.77,0,0,0-1.47.35,2.11,2.11,0,0,0-.51.91c-1.12,3.33-1,7.15-3,10"/><path d="M21.23,18.69c.76-4,1.53-8.2.66-12.27a3.17,3.17,0,0,0-.65-1.69,5,5,0,0,0-2.5-.79,9.4,9.4,0,0,0-5,.19C10.6,5.39,11,9.07,12.64,11.38a41.5,41.5,0,0,0,3.93,4.55c1.16,1.25,2.37,2.92,4.05,3.47.43.14.62-.45.29-.68-1.71-1.22-3.42-2.44-5.16-3.61a10.56,10.56,0,0,0-4.45-1.93c-1.18-.17-2.53-.29-3.1,1a8.31,8.31,0,0,0-.27,4.23,8.3,8.3,0,0,0,1.6,4.2c.89,1,2.26.9,3.49.77a10.3,10.3,0,0,0,7.29-3.88c.22-.29-.22-.74-.51-.51-1.5,1.14-3,2.25-4.5,3.44a7,7,0,0,0-2.5,3.2c-.82,2.76,1.6,5.14,4.09,5.77a12.29,12.29,0,0,0,4.68.16c1-.13,1.91-.49,2.16-1.52.36-1.49-.09-3.44-.33-4.93a30,30,0,0,0-1.55-5.66l-.63.37C22.44,21.21,23.7,22.61,25,24c.95,1,2,2.36,3.36,2.84,2.71,1,3.09-2.38,3.28-4.23.25-2.43-.52-5.19-3.1-6s-5.79.31-8,1.59c-.35.22-.12.82.29.69A13.1,13.1,0,0,0,25,16.79c.68-.51,1.31-1.09,2-1.56s1.45-.83,2.12-1.34c2.14-1.64,2-4-.11-5.54-1.68-1.23-4.67-2.65-5.66,0-1.22,3.29-1,6.93-2.93,10-.27.41.38.78.65.38a16.61,16.61,0,0,0,2.08-6.15c.21-1.14.42-2.28.74-3.4.27-.91.77-1.65,1.78-1.54a5.16,5.16,0,0,1,2,.78c1.12.65,2.59,1.66,2.27,3.17s-1.88,2.11-3,2.8-1.8,1.39-2.73,2.06a12.88,12.88,0,0,1-3.56,1.72l.29.68a12,12,0,0,1,6.21-1.71c2.75.13,3.91,2.5,3.75,5a8.72,8.72,0,0,1-.7,3.57c-1,1.6-3-.57-3.69-1.26-1.68-1.65-3.28-3.38-4.8-5.17a.38.38,0,0,0-.63.36,28.37,28.37,0,0,1,1.82,7.81,9.06,9.06,0,0,1,.09,1.8,1.6,1.6,0,0,1-1.56,1.56,12.3,12.3,0,0,1-4-.05c-2.6-.52-5.29-3.1-3.56-5.84a11.11,11.11,0,0,1,2.8-2.67l3.44-2.63-.52-.51a9.13,9.13,0,0,1-5.82,3.38c-1.37.25-3.23.55-4.07-.83a9.31,9.31,0,0,1-1.16-4,9.32,9.32,0,0,1,0-1.67c.07-.81.07-1.54.82-1.93,1.31-.67,3.38.2,4.56.85a69.25,69.25,0,0,1,6.54,4.47l.29-.68c-1.43-.47-2.56-2-3.56-3.11s-2-2.17-3-3.29S12.14,9.6,12.1,7.9a3.17,3.17,0,0,1,2.71-3.31,11.26,11.26,0,0,1,4.62.25,1.91,1.91,0,0,1,1.69,1.55A15.8,15.8,0,0,1,21.49,9a39.06,39.06,0,0,1-1,9.45c-.09.47.63.67.72.2Z"/></svg>